<svg width="560" height="727" viewBox="0 0 560 727" fill="none" xmlns="http://www.w3.org/2000/svg">
<mask id="path-1-inside-1" fill="white">
<path fill-rule="evenodd" clip-rule="evenodd" d="M127.329 167H431.671C418.803 87.9849 354.26 30 279.5 30C204.74 30 140.197 87.9849 127.329 167ZM97.0056 167H90C40.2944 167 0 207.294 0 257V637C0 686.706 40.2944 727 90 727H470C519.706 727 560 686.706 560 637V257C560 207.294 519.706 167 470 167H461.994C448.802 72.5038 372.121 0 279.5 0C186.879 0 110.198 72.5038 97.0056 167Z"/>
</mask>
<path d="M127.329 167L97.7188 162.178C96.3044 170.863 98.7741 179.73 104.474 186.434C110.174 193.137 118.53 197 127.329 197V167ZM431.671 167V197C440.47 197 448.826 193.137 454.526 186.434C460.226 179.73 462.696 170.863 461.281 162.178L431.671 167ZM97.0056 167V197C111.971 197 124.648 185.97 126.717 171.148L97.0056 167ZM461.994 167L432.283 171.148C434.352 185.97 447.029 197 461.994 197V167ZM127.329 197H431.671V137H127.329V197ZM461.281 162.178C446.289 70.1208 370.413 0 279.5 0V60C338.108 60 391.317 105.849 402.061 171.822L461.281 162.178ZM279.5 0C188.587 0 112.711 70.1208 97.7188 162.178L156.939 171.822C167.683 105.849 220.892 60 279.5 60V0ZM90 197H97.0056V137H90V197ZM30 257C30 223.863 56.8629 197 90 197V137C23.7258 137 -30 190.726 -30 257H30ZM30 637V257H-30V637H30ZM90 697C56.8629 697 30 670.137 30 637H-30C-30 703.274 23.7258 757 90 757V697ZM470 697H90V757H470V697ZM530 637C530 670.137 503.137 697 470 697V757C536.274 757 590 703.274 590 637H530ZM530 257V637H590V257H530ZM470 197C503.137 197 530 223.863 530 257H590C590 190.726 536.274 137 470 137V197ZM461.994 197H470V137H461.994V197ZM491.706 162.852C476.668 55.1321 388.646 -30 279.5 -30V30C355.596 30 420.936 89.8754 432.283 171.148L491.706 162.852ZM279.5 -30C170.354 -30 82.3323 55.1321 67.2937 162.852L126.717 171.148C138.064 89.8754 203.404 30 279.5 30V-30Z" fill="#F5F5F7" mask="url(#path-1-inside-1)"/>
</svg>
