<svg width="756" height="746" viewBox="0 0 756 746" fill="none" xmlns="http://www.w3.org/2000/svg">
<mask id="path-1-inside-1" fill="white">
<path fill-rule="evenodd" clip-rule="evenodd" d="M196.287 182H559.713C534.856 105.389 462.896 50 378 50C293.104 50 221.144 105.389 196.287 182ZM144.274 182C170.591 77.4214 265.254 0 378 0C490.746 0 585.409 77.4214 611.726 182H666C715.706 182 756 222.294 756 272V656C756 705.706 715.706 746 666 746H90C40.2944 746 0 705.706 0 656V272C0 222.294 40.2944 182 90 182H144.274Z"/>
</mask>
<path d="M196.287 182L148.728 166.569L127.498 232H196.287V182ZM559.713 182V232H628.502L607.273 166.569L559.713 182ZM144.274 182V232H183.251L192.763 194.202L144.274 182ZM611.726 182L563.237 194.202L572.749 232H611.726V182ZM196.287 232H559.713V132H196.287V232ZM607.273 166.569C575.925 69.9534 485.197 0 378 0V100C440.596 100 493.787 140.824 512.154 197.431L607.273 166.569ZM378 0C270.803 0 180.075 69.9534 148.728 166.569L243.846 197.431C262.213 140.824 315.404 100 378 100V0ZM378 -50C241.795 -50 127.56 43.5302 95.7861 169.798L192.763 194.202C213.621 111.313 288.713 50 378 50V-50ZM660.214 169.798C628.44 43.5302 514.205 -50 378 -50V50C467.287 50 542.379 111.313 563.237 194.202L660.214 169.798ZM611.726 232H666V132H611.726V232ZM666 232C688.091 232 706 249.909 706 272H806C806 194.68 743.32 132 666 132V232ZM706 272V656H806V272H706ZM706 656C706 678.091 688.091 696 666 696V796C743.32 796 806 733.32 806 656H706ZM666 696H90V796H666V696ZM90 696C67.9086 696 50 678.091 50 656H-50C-50 733.32 12.6802 796 90 796V696ZM50 656V272H-50V656H50ZM50 272C50 249.909 67.9086 232 90 232V132C12.6801 132 -50 194.68 -50 272H50ZM90 232H144.274V132H90V232Z" fill="#F5F5F7" mask="url(#path-1-inside-1)"/>
</svg>
